{
  "asset": {"version": "2.0", "generator": "oren-obc-store-demo"},
  "buffers": [
    {
      "uri": "data:application/octet-stream;base64,",
      "byteLength": 54
    },
    {
      "uri": "data:application/octet-stream;base64,",
      "byteLength": 32
    }
  ],
  "bufferViews": [
    {"buffer": 0, "byteOffset": 0, "byteLength": 36},
    {"buffer": 0, "byteOffset": 36, "byteLength": 6},
    {"buffer": 0, "byteOffset": 42, "byteLength": 12},
    {"buffer": 1, "byteOffset": 0, "byteLength": 8},
    {"buffer": 1, "byteOffset": 8, "byteLength": 24}
  ],
  "accessors": [
    {"bufferView": 0, "componentType": 5126, "count": 3, "type": "VEC3"},
    {"bufferView": 1, "componentType": 5123, "count": 3, "type": "SCALAR"},
    {"bufferView": 2, "componentType": 5121, "count": 3, "type": "VEC4", "normalized": true},
    {"bufferView": 3, "componentType": 5126, "count": 2, "type": "SCALAR", "min": [0.0], "max": [1.0]},
    {"bufferView": 4, "componentType": 5126, "count": 2, "type": "VEC3"}
  ],
  "meshes": [
    {
      "primitives": [
        {"attributes": {"POSITION": 0, "COLOR_0": 2}, "indices": 1}
      ]
    }
  ],
  "nodes": [
    {"name": "marker-node", "mesh": 0, "translation": [0.0, 0.0, 0.0], "scale": [1.0, 1.0, 1.0]}
  ],
  "animations": [
    {
      "name": "marker-rise",
      "channels": [
        {"sampler": 0, "target": {"node": 0, "path": "translation"}}
      ],
      "samplers": [
        {"input": 3, "output": 4, "interpolation": "LINEAR"}
      ]
    }
  ]
}
